<svg width="56" height="56" viewBox="0 0 56 56" fill="none" xmlns="http://www.w3.org/2000/svg">
<path d="M55.9992 28.1716C55.9992 12.6106 43.4622 -0.00341797 27.9992 -0.00341797C12.5292 8.20314e-05 -0.0078125 12.6106 -0.0078125 28.1751C-0.0078125 42.2346 10.2332 53.8896 23.6172 56.0036V36.3161H16.5122V28.1751H23.6242V21.9626C23.6242 14.9031 27.8067 11.0041 34.2012 11.0041C37.2672 11.0041 40.4697 11.5536 40.4697 11.5536V18.4836H36.9382C33.4627 18.4836 32.3777 20.6571 32.3777 22.8866V28.1716H40.1407L38.9017 36.3126H32.3742V56.0001C45.7582 53.8861 55.9992 42.2311 55.9992 28.1716Z" fill="white"/>
</svg>
