<svg width="48" height="48" viewBox="0 0 48 48" fill="none" xmlns="http://www.w3.org/2000/svg">
<path fill-rule="evenodd" clip-rule="evenodd" d="M40 0C42.1217 0 44.1566 0.842855 45.6569 2.34315C47.1571 3.84344 48 5.87827 48 8V40C48 42.1217 47.1571 44.1566 45.6569 45.6569C44.1566 47.1571 42.1217 48 40 48H8C5.87827 48 3.84344 47.1571 2.34315 45.6569C0.842855 44.1566 0 42.1217 0 40V8C0 5.87827 0.842855 3.84344 2.34315 2.34315C3.84344 0.842855 5.87827 0 8 0H40ZM13.3333 18.6667C12.6261 18.6667 11.9478 18.9476 11.4477 19.4477C10.9476 19.9478 10.6667 20.6261 10.6667 21.3333V34.6667C10.6667 35.3739 10.9476 36.0522 11.4477 36.5523C11.9478 37.0524 12.6261 37.3333 13.3333 37.3333C14.0406 37.3333 14.7189 37.0524 15.219 36.5523C15.719 36.0522 16 35.3739 16 34.6667V21.3333C16 20.6261 15.719 19.9478 15.219 19.4477C14.7189 18.9476 14.0406 18.6667 13.3333 18.6667ZM21.3333 16C20.6261 16 19.9478 16.281 19.4477 16.781C18.9476 17.2811 18.6667 17.9594 18.6667 18.6667V34.6667C18.6667 35.3739 18.9476 36.0522 19.4477 36.5523C19.9478 37.0524 20.6261 37.3333 21.3333 37.3333C22.0406 37.3333 22.7189 37.0524 23.219 36.5523C23.719 36.0522 24 35.3739 24 34.6667V24.9067C25.0404 23.775 26.3056 22.8731 27.7147 22.2587C28.6027 21.88 29.9387 21.7253 30.8667 22.0187C31.1745 22.0968 31.4487 22.2727 31.648 22.52C31.7867 22.7067 32 23.1227 32 24V34.6667C32 35.3739 32.281 36.0522 32.7811 36.5523C33.2811 37.0524 33.9594 37.3333 34.6667 37.3333C35.3739 37.3333 36.0522 37.0524 36.5523 36.5523C37.0524 36.0522 37.3333 35.3739 37.3333 34.6667V24C37.3333 22.2133 36.88 20.624 35.936 19.3493C35.0673 18.1935 33.8516 17.3459 32.4667 16.9307C30.0613 16.176 27.3973 16.5947 25.6187 17.3573C25.0488 17.6012 24.494 17.8791 23.9573 18.1893C23.8455 17.5749 23.5217 17.0192 23.0421 16.6191C22.5626 16.219 21.9579 15.9999 21.3333 16ZM13.3333 10.6667C12.6261 10.6667 11.9478 10.9476 11.4477 11.4477C10.9476 11.9478 10.6667 12.6261 10.6667 13.3333C10.6667 14.0406 10.9476 14.7189 11.4477 15.219C11.9478 15.719 12.6261 16 13.3333 16C14.0406 16 14.7189 15.719 15.219 15.219C15.719 14.7189 16 14.0406 16 13.3333C16 12.6261 15.719 11.9478 15.219 11.4477C14.7189 10.9476 14.0406 10.6667 13.3333 10.6667Z" fill="white"/>
</svg>
