<svg width="18" height="18" viewBox="0 0 18 18" fill="none" xmlns="http://www.w3.org/2000/svg">
<path d="M16.95 18C17.25 18 17.5 17.9 17.7 17.7C17.9 17.5 18 17.25 18 16.95V12.9C18 12.6667 17.925 12.4623 17.775 12.287C17.625 12.1117 17.4333 11.9993 17.2 11.95L13.75 11.25C13.5167 11.2167 13.279 11.2377 13.037 11.313C12.795 11.3883 12.5993 11.5007 12.45 11.65L10.1 14C8.83333 13.2333 7.675 12.325 6.625 11.275C5.575 10.225 4.7 9.1 4 7.9L6.4 5.45C6.55 5.3 6.646 5.129 6.688 4.937C6.73 4.745 6.734 4.53267 6.7 4.3L6.05 0.8C6.01667 0.566667 5.90833 0.375 5.725 0.225C5.54167 0.0749999 5.33333 0 5.1 0H1.05C0.75 0 0.5 0.0999999 0.299999 0.3C0.0999985 0.5 0 0.75 0 1.05C0 3.2 0.479334 5.296 1.438 7.338C2.39667 9.38 3.66333 11.1883 5.238 12.763C6.81267 14.3377 8.621 15.6043 10.663 16.563C12.705 17.5217 14.8007 18.0007 16.95 18Z" fill="#8421C0"/>
</svg>
