<svg width="56" height="56" viewBox="0 0 56 56" fill="none" xmlns="http://www.w3.org/2000/svg">
<path d="M28 0C12.5375 0 0 12.5375 0 28C0 43.4625 12.5375 56 28 56C43.4625 56 56 43.4625 56 28C56 12.5375 43.4625 0 28 0ZM41.4562 21.1063C41.475 21.4 41.475 21.7063 41.475 22.0063C41.475 31.1813 34.4875 41.75 21.7188 41.75C17.7812 41.75 14.1312 40.6063 11.0562 38.6375C11.6187 38.7 12.1563 38.725 12.7313 38.725C15.9813 38.725 18.9688 37.625 21.35 35.7625C18.3 35.7 15.7375 33.7 14.8625 30.95C15.9312 31.1063 16.8937 31.1063 17.9937 30.825C16.4233 30.5059 15.0117 29.653 13.9989 28.4111C12.986 27.1693 12.4343 25.615 12.4375 24.0125V23.925C13.3562 24.4437 14.4375 24.7625 15.5688 24.8062C14.6178 24.1725 13.8379 23.3138 13.2982 22.3064C12.7585 21.2991 12.4758 20.1741 12.475 19.0312C12.475 17.7375 12.8125 16.5562 13.4188 15.5312C15.1619 17.6771 17.3371 19.4321 19.8029 20.6823C22.2687 21.9324 24.97 22.6497 27.7313 22.7875C26.75 18.0688 30.275 14.25 34.5125 14.25C36.5125 14.25 38.3125 15.0875 39.5812 16.4375C41.15 16.1437 42.65 15.5562 43.9875 14.7687C43.4688 16.375 42.3812 17.7312 40.9375 18.5875C42.3375 18.4375 43.6875 18.05 44.9375 17.5063C43.9938 18.8938 42.8125 20.125 41.4562 21.1063Z" fill="white"/>
</svg>
