<svg width="74" height="128" viewBox="0 0 74 128" fill="none" xmlns="http://www.w3.org/2000/svg">
<path d="M15.1667 3.33316L71.3333 59.3332C72 59.9998 72.4733 60.7221 72.7533 61.4998C73.0333 62.2776 73.1711 63.1109 73.1666 63.9998C73.1666 64.8887 73.0289 65.7221 72.7533 66.4998C72.4778 67.2776 72.0044 67.9998 71.3333 68.6665L15.1666 124.833C13.6111 126.389 11.6666 127.166 9.33331 127.166C6.99998 127.166 4.99998 126.333 3.33331 124.666C1.66665 123 0.833314 121.055 0.833314 118.833C0.833314 116.611 1.66665 114.666 3.33331 113L52.3333 63.9998L3.33332 14.9998C1.77777 13.4443 0.999987 11.5265 0.999987 9.2465C0.999988 6.9665 1.83332 4.99539 3.49999 3.33316C5.16665 1.6665 7.1111 0.833162 9.33332 0.833162C11.5555 0.833163 13.5 1.6665 15.1667 3.33316Z" fill="url(#paint0_linear_727_3)"/>
<defs>
<linearGradient id="paint0_linear_727_3" x1="57.6667" y1="127.167" x2="-27.2805" y2="79.266" gradientUnits="userSpaceOnUse">
<stop stop-color="#8E12DA"/>
<stop offset="1" stop-color="#E31A1A"/>
</linearGradient>
</defs>
</svg>
