<svg width="23" height="28" viewBox="0 0 23 28" fill="none" xmlns="http://www.w3.org/2000/svg">
<path d="M2.66667 27.3332C1.93334 27.3332 1.30534 27.0718 0.782669 26.5492C0.260002 26.0265 -0.000886625 25.399 2.26373e-06 24.6665V5.99984H2.66667V24.6665H17.3333V27.3332H2.66667ZM8 21.9998C7.26667 21.9998 6.63867 21.7385 6.116 21.2158C5.59334 20.6932 5.33245 20.0656 5.33334 19.3332V3.33317C5.33334 2.59984 5.59467 1.97184 6.11734 1.44917C6.64 0.926506 7.26756 0.665617 8 0.666506H20C20.7333 0.666506 21.3613 0.92784 21.884 1.45051C22.4067 1.97317 22.6676 2.60073 22.6667 3.33317V19.3332C22.6667 20.0665 22.4053 20.6945 21.8827 21.2172C21.36 21.7398 20.7324 22.0007 20 21.9998H8Z" fill="#8421C0"/>
</svg>
