<svg width="28" height="28" viewBox="0 0 28 28" fill="none" xmlns="http://www.w3.org/2000/svg">
<path d="M13.9993 4.66675C15.237 4.66675 16.424 5.15841 17.2992 6.03358C18.1744 6.90875 18.666 8.09574 18.666 9.33342C18.666 10.5711 18.1744 11.7581 17.2992 12.6332C16.424 13.5084 15.237 14.0001 13.9993 14.0001C12.7617 14.0001 11.5747 13.5084 10.6995 12.6332C9.82435 11.7581 9.33268 10.5711 9.33268 9.33342C9.33268 8.09574 9.82435 6.90875 10.6995 6.03358C11.5747 5.15841 12.7617 4.66675 13.9993 4.66675ZM13.9993 16.3334C19.156 16.3334 23.3327 18.4217 23.3327 21.0001V23.3334H4.66602V21.0001C4.66602 18.4217 8.84268 16.3334 13.9993 16.3334Z" fill="#171717"/>
</svg>
