<svg width="28" height="28" viewBox="0 0 28 28" fill="none" xmlns="http://www.w3.org/2000/svg">
<path d="M8.16602 17.5H10.4993C10.4993 18.76 12.0977 19.8333 13.9993 19.8333C15.901 19.8333 17.4993 18.76 17.4993 17.5C17.4993 16.2167 16.286 15.75 13.7193 15.1317C11.246 14.5133 8.16602 13.7433 8.16602 10.5C8.16602 8.41167 9.88102 6.63833 12.2493 6.04333V3.5H15.7493V6.04333C18.1177 6.63833 19.8327 8.41167 19.8327 10.5H17.4993C17.4993 9.24 15.901 8.16667 13.9993 8.16667C12.0977 8.16667 10.4993 9.24 10.4993 10.5C10.4993 11.7833 11.7127 12.25 14.2793 12.8683C16.7527 13.4867 19.8327 14.2567 19.8327 17.5C19.8327 19.5883 18.1177 21.3617 15.7493 21.9567V24.5H12.2493V21.9567C9.88102 21.3617 8.16602 19.5883 8.16602 17.5Z" fill="#171717"/>
</svg>
