<svg width="25" height="24" viewBox="0 0 25 24" fill="none" xmlns="http://www.w3.org/2000/svg">
<path d="M19.568 20.3L13.968 14.7C13.468 15.1 12.893 15.4167 12.243 15.65C11.593 15.8833 10.9013 16 10.168 16C8.3513 16 6.81397 15.3707 5.55597 14.112C4.29797 12.8533 3.66864 11.316 3.66797 9.5C3.66797 7.68333 4.2973 6.146 5.55597 4.888C6.81464 3.63 8.35197 3.00067 10.168 3C11.9846 3 13.522 3.62933 14.78 4.888C16.038 6.14667 16.6673 7.684 16.668 9.5C16.668 10.2333 16.5513 10.925 16.318 11.575C16.0846 12.225 15.768 12.8 15.368 13.3L20.993 18.925C21.1763 19.1083 21.268 19.3333 21.268 19.6C21.268 19.8667 21.168 20.1 20.968 20.3C20.7846 20.4833 20.5513 20.575 20.268 20.575C19.9846 20.575 19.7513 20.4833 19.568 20.3ZM10.168 14C11.418 14 12.4806 13.5623 13.356 12.687C14.2313 11.8117 14.6686 10.7493 14.668 9.5C14.668 8.25 14.2303 7.18733 13.355 6.312C12.4796 5.43667 11.4173 4.99933 10.168 5C8.91797 5 7.8553 5.43767 6.97997 6.313C6.10464 7.18833 5.6673 8.25067 5.66797 9.5C5.66797 10.75 6.10564 11.8127 6.98097 12.688C7.8563 13.5633 8.91864 14.0007 10.168 14Z" fill="#171717"/>
</svg>
