<svg width="134" height="108" viewBox="0 0 134 108" fill="none" xmlns="http://www.w3.org/2000/svg">
<rect width="134" height="108" fill="#1E1E1E"/>
<g clip-path="url(#clip0_1_3)">
<rect width="1920" height="1080" transform="translate(-417 -324)" fill="white"/>
<g opacity="0.2" filter="url(#filter0_f_1_3)">
<circle cx="488.5" cy="324.5" r="998.5" fill="#9B7EEA"/>
</g>
<rect x="-417" y="-324" width="1920" height="1080" fill="white" fill-opacity="0.4"/>
<rect x="-68.5" y="-323.5" width="1571" height="1079" rx="9.5" fill="#FDFDFD" fill-opacity="0.4" stroke="#FDFDFD"/>
<path fill-rule="evenodd" clip-rule="evenodd" d="M0.333496 99.7134V8.28628C0.333496 4.08054 3.65156 0.666504 7.7405 0.666504H52.186C63.2978 0.666504 59.8637 15.9049 74.4082 15.9049H126.26C130.349 15.9049 133.667 19.3189 133.667 23.5246V99.7134C133.667 103.919 130.349 107.333 126.26 107.333H7.74137C3.65243 107.333 0.334369 103.919 0.334369 99.7134H0.333496Z" fill="#8421C0" fill-opacity="0.1"/>
</g>
<defs>
<filter id="filter0_f_1_3" x="-614" y="-778" width="2205" height="2205" filterUnits="userSpaceOnUse" color-interpolation-filters="sRGB">
<feFlood flood-opacity="0" result="BackgroundImageFix"/>
<feBlend mode="normal" in="SourceGraphic" in2="BackgroundImageFix" result="shape"/>
<feGaussianBlur stdDeviation="52" result="effect1_foregroundBlur_1_3"/>
</filter>
<clipPath id="clip0_1_3">
<rect width="1920" height="1080" fill="white" transform="translate(-417 -324)"/>
</clipPath>
</defs>
</svg>
